<?xml version="1.0" encoding="UTF-8" standalone="no"?>
<svg
   xmlns:dc="http://purl.org/dc/elements/1.1/"
   xmlns:cc="http://creativecommons.org/ns#"
   xmlns:rdf="http://www.w3.org/1999/02/22-rdf-syntax-ns#"
   xmlns:svg="http://www.w3.org/2000/svg"
   xmlns="http://www.w3.org/2000/svg"
   xmlns:sodipodi="http://sodipodi.sourceforge.net/DTD/sodipodi-0.dtd"
   xmlns:inkscape="http://www.inkscape.org/namespaces/inkscape"
   width="273.73843"
   height="413.59375"
   id="svg2"
   version="1.1"
   inkscape:version="0.48.5 r10040"
   sodipodi:docname="arrowred.svg">
  <metadata
     id="metadata17">
    <rdf:RDF>
      <cc:Work
         rdf:about="">
        <dc:format>image/svg+xml</dc:format>
        <dc:type
           rdf:resource="http://purl.org/dc/dcmitype/StillImage" />
      </cc:Work>
    </rdf:RDF>
  </metadata>
  <defs
     id="defs15">
    <clipPath
       clipPathUnits="userSpaceOnUse"
       id="clipPath2996">
      <rect
         style="fill:#ffffff;fill-opacity:1;stroke:none"
         id="rect2998"
         width="292.88135"
         height="437.28815"
         x="2.0338984"
         y="26.440678" />
    </clipPath>
    <clipPath
       clipPathUnits="userSpaceOnUse"
       id="clipPath3000">
      <rect
         style="fill:#ffffff;fill-opacity:1;stroke:none"
         id="rect3002"
         width="292.88135"
         height="437.28815"
         x="2.0338984"
         y="26.440678" />
    </clipPath>
  </defs>
  <sodipodi:namedview
     pagecolor="#ffffff"
     bordercolor="#666666"
     borderopacity="1"
     objecttolerance="10"
     gridtolerance="10"
     guidetolerance="10"
     inkscape:pageopacity="0"
     inkscape:pageshadow="2"
     inkscape:window-width="640"
     inkscape:window-height="480"
     id="namedview13"
     showgrid="false"
     fit-margin-top="0"
     fit-margin-left="0"
     fit-margin-right="0"
     fit-margin-bottom="0"
     inkscape:zoom="0.49166667"
     inkscape:cx="303.49406"
     inkscape:cy="211.32751"
     inkscape:window-x="0"
     inkscape:window-y="0"
     inkscape:window-maximized="0"
     inkscape:current-layer="svg2" />
  <!-- Created with SVG-edit - http://svg-edit.googlecode.com/ -->
  <g
     id="g4"
     clip-path="url(#clipPath3000)"
     transform="translate(-16.505936,-37.733749)">
    <title
       id="title6">arrow</title>
  </g>
  <g
     id="g8"
     clip-path="url(#clipPath2996)"
     transform="translate(-16.505936,-37.733749)">
    <title
       id="title10">Layer 1</title>
    <path
       d="m -38.47974,109.79627 c 8.866863,0 16.06315,7.50049 16.06315,16.74221 0,119.93291 94.909204,129.24997 123.99965,129.24997 l 187.83463,0 0,-4.1102 -58.29315,-54.56289 c -7.82277,-7.32474 -8.46522,-19.86469 -1.44565,-28.00982 3.75866,-4.36132 8.94704,-6.58801 14.16776,-6.58801 4.52171,0 9.06766,1.68253 12.70578,5.07282 l 95.20642,89.11894 c 0.0161,0 0.0161,0.0167 0.032,0.0167 l 0.0162,0.0167 c 0,0.0168 0,0.0168 0.0162,0.0168 0.49774,0.47727 0.9718,0.96265 1.42945,1.49848 0.20074,0.23437 0.3453,0.51892 0.522,0.75335 0.43384,0.52741 0.81131,1.08826 1.17261,1.66584 0.3453,0.52743 0.65856,1.07141 0.93972,1.62402 0.28113,0.58594 0.53827,1.17193 0.78702,1.76629 0.21698,0.60285 0.44196,1.20539 0.61057,1.81653 0.16864,0.60279 0.3132,1.21387 0.42547,1.83322 0.1287,0.63623 0.21692,1.25577 0.27332,1.90024 0.0561,0.62781 0.0723,1.25562 0.0723,1.89182 0,0.63629 -0.0242,1.25583 -0.0804,1.8836 -0.0642,0.63626 -0.16049,1.26407 -0.27301,1.90012 -0.12058,0.61954 -0.24902,1.22229 -0.41766,1.83334 -0.17673,0.61115 -0.39359,1.20548 -0.61838,1.80823 -0.2331,0.61108 -0.49808,1.19699 -0.79514,1.78302 -0.28116,0.55246 -0.59442,1.08832 -0.9238,1.62402 -0.36129,0.56919 -0.75488,1.13007 -1.1726,1.6742 -0.18451,0.2344 -0.3132,0.51068 -0.51395,0.74511 -0.23285,0.2595 -0.51398,0.46869 -0.75494,0.71143 -0.24906,0.25122 -0.44977,0.53589 -0.70694,0.78693 l -97.46306,91.20321 c -7.82301,7.31638 -19.84612,6.6384 -26.86563,-1.50677 -7.01982,-8.15344 -6.36907,-20.68491 1.44565,-28.00134 l 60.50178,-56.62223 0,-2.05923 -187.82657,0 c -94.845118,0 -156.125955,-63.8799 -156.125955,-162.73446 -0.0081,-9.25002 7.188171,-16.7422 16.055096,-16.7422 l -4e-6,1e-5 z"
       id="svg_1"
       transform="matrix(0,-1,1,0,-92.775314,396.29625)"
       inkscape:connector-curvature="0"
       style="fill:#cf4c4c;stroke:#000000;stroke-opacity:0" />
  </g>
</svg>
